<svg width="0" height="0" class="hidden">
  <symbol fill="none" xmlns="http://www.w3.org/2000/svg" viewBox="0 0 40 24" id="Burger">
    <rect width="40" height="2" fill="currentColor"></rect>
    <rect y="11" width="40" height="2" fill="currentColor"></rect>
    <rect y="22" width="40" height="2" fill="currentColor"></rect>
  </symbol>
  <symbol version="1.1" xmlns="http://www.w3.org/2000/svg" xmlns:xlink="http://www.w3.org/1999/xlink" viewBox="0 0 24 24" id="clock">
    <title>Clock</title>
    <g id="Page-1" stroke="none" stroke-width="1" fill="none" fill-rule="evenodd">
      <g id="Clock">
        <rect id="Rectangle" fill-rule="nonzero" x="0" y="0" width="24" height="24"></rect>
        <circle id="Oval" stroke="currentColor" stroke-width="2" stroke-linecap="round" cx="12" cy="12" r="9"></circle>
        <path d="M9,12 L11.5,12 C11.7761,12 12,11.7761 12,11.5 L12,7" id="Path" stroke="currentColor" stroke-width="2" stroke-linecap="round"></path>
      </g>
    </g>
  </symbol>
  <symbol fill="currentColor" xmlns="http://www.w3.org/2000/svg" viewBox="0 0 9 9" id="ellipse">
    <circle cx="4.5" cy="4.5" r="4" stroke="currentColor"></circle>
  </symbol>
  <symbol fill="none" xmlns="http://www.w3.org/2000/svg" viewBox="0 0 40 40" id="facebook">
    <path d="M26.3438 16.75C26.3646 16.8333 26.375 16.9688 26.375 17.1562C26.375 18.2604 26.1667 19.3646 25.75 20.4688C25.3333 21.5521 24.7396 22.5521 23.9688 23.4688C23.2188 24.3646 22.2396 25.0938 21.0312 25.6562C19.8229 26.2188 18.4896 26.5 17.0312 26.5C15.1979 26.5 13.5208 26.0104 12 25.0312C12.2292 25.0521 12.4896 25.0625 12.7812 25.0625C14.3021 25.0625 15.6667 24.5938 16.875 23.6562C16.1458 23.6562 15.5 23.4479 14.9375 23.0312C14.3958 22.5938 14.0208 22.0521 13.8125 21.4062C14.0208 21.4271 14.2188 21.4375 14.4062 21.4375C14.6979 21.4375 14.9896 21.4062 15.2812 21.3438C14.7812 21.2396 14.3333 21.0312 13.9375 20.7188C13.5417 20.4062 13.2292 20.0312 13 19.5938C12.7708 19.1354 12.6562 18.6458 12.6562 18.125V18.0625C13.1146 18.3333 13.6042 18.4792 14.125 18.5C13.1458 17.8333 12.6562 16.9167 12.6562 15.75C12.6562 15.1667 12.8125 14.6146 13.125 14.0938C13.9375 15.1146 14.9271 15.9271 16.0938 16.5312C17.2812 17.1354 18.5417 17.4688 19.875 17.5312C19.8333 17.2812 19.8125 17.0312 19.8125 16.7812C19.8125 15.8854 20.125 15.1146 20.75 14.4688C21.3958 13.8229 22.1667 13.5 23.0625 13.5C24.0208 13.5 24.8229 13.8438 25.4688 14.5312C26.2188 14.3854 26.9167 14.125 27.5625 13.75C27.3125 14.5208 26.8333 15.125 26.125 15.5625C26.75 15.4792 27.375 15.3021 28 15.0312C27.5417 15.6979 26.9896 16.2708 26.3438 16.75Z" fill="currentColor"></path>
  </symbol>
  <symbol fill="none" xmlns="http://www.w3.org/2000/svg" viewBox="0 0 40 40" id="insta">
    <path d="M17.4688 17.4688C18.1771 16.7604 19.0312 16.4062 20.0312 16.4062C21.0312 16.4062 21.875 16.7604 22.5625 17.4688C23.2708 18.1562 23.625 19 23.625 20C23.625 21 23.2708 21.8542 22.5625 22.5625C21.875 23.25 21.0312 23.5938 20.0312 23.5938C19.0312 23.5938 18.1771 23.25 17.4688 22.5625C16.7812 21.8542 16.4375 21 16.4375 20C16.4375 19 16.7812 18.1562 17.4688 17.4688ZM18.375 21.6562C18.8333 22.1146 19.3854 22.3438 20.0312 22.3438C20.6771 22.3438 21.2292 22.1146 21.6875 21.6562C22.1458 21.1979 22.375 20.6458 22.375 20C22.375 19.3542 22.1458 18.8021 21.6875 18.3438C21.2292 17.8854 20.6771 17.6562 20.0312 17.6562C19.3854 17.6562 18.8333 17.8854 18.375 18.3438C17.9167 18.8021 17.6875 19.3542 17.6875 20C17.6875 20.6458 17.9167 21.1979 18.375 21.6562ZM24.3438 15.6875C24.5104 15.8333 24.5938 16.0208 24.5938 16.25C24.5938 16.4792 24.5104 16.6771 24.3438 16.8438C24.1979 17.0104 24.0104 17.0938 23.7812 17.0938C23.5521 17.0938 23.3542 17.0104 23.1875 16.8438C23.0208 16.6771 22.9375 16.4792 22.9375 16.25C22.9375 16.0208 23.0208 15.8333 23.1875 15.6875C23.3542 15.5208 23.5521 15.4375 23.7812 15.4375C24.0104 15.4375 24.1979 15.5208 24.3438 15.6875ZM27 17.125C27.0208 17.6875 27.0312 18.6458 27.0312 20C27.0312 21.3542 27.0208 22.3125 27 22.875C26.9375 24.1458 26.5521 25.1354 25.8438 25.8438C25.1562 26.5312 24.1771 26.8958 22.9062 26.9375C22.3438 26.9792 21.3854 27 20.0312 27C18.6771 27 17.7188 26.9792 17.1562 26.9375C15.8854 26.875 14.9062 26.5 14.2188 25.8125C13.9479 25.5625 13.7292 25.2708 13.5625 24.9375C13.3958 24.6042 13.2708 24.2812 13.1875 23.9688C13.125 23.6562 13.0938 23.2917 13.0938 22.875C13.0521 22.3125 13.0312 21.3542 13.0312 20C13.0312 18.6458 13.0521 17.6771 13.0938 17.0938C13.1562 15.8438 13.5312 14.875 14.2188 14.1875C14.9062 13.4792 15.8854 13.0938 17.1562 13.0312C17.7188 13.0104 18.6771 13 20.0312 13C21.3854 13 22.3438 13.0104 22.9062 13.0312C24.1771 13.0938 25.1562 13.4792 25.8438 14.1875C26.5521 14.875 26.9375 15.8542 27 17.125ZM25.5 24.125C25.5625 23.9583 25.6146 23.75 25.6562 23.5C25.6979 23.2292 25.7292 22.9167 25.75 22.5625C25.7708 22.1875 25.7812 21.8854 25.7812 21.6562C25.7812 21.4271 25.7812 21.1042 25.7812 20.6875C25.7812 20.2708 25.7812 20.0417 25.7812 20C25.7812 19.9375 25.7812 19.7083 25.7812 19.3125C25.7812 18.8958 25.7812 18.5729 25.7812 18.3438C25.7812 18.1146 25.7708 17.8229 25.75 17.4688C25.7292 17.0938 25.6979 16.7812 25.6562 16.5312C25.6146 16.2604 25.5625 16.0417 25.5 15.875C25.25 15.2292 24.8021 14.7812 24.1562 14.5312C23.9896 14.4688 23.7708 14.4167 23.5 14.375C23.25 14.3333 22.9375 14.3021 22.5625 14.2812C22.2083 14.2604 21.9167 14.25 21.6875 14.25C21.4792 14.25 21.1562 14.25 20.7188 14.25C20.3021 14.25 20.0729 14.25 20.0312 14.25C19.9896 14.25 19.7604 14.25 19.3438 14.25C18.9271 14.25 18.6042 14.25 18.375 14.25C18.1458 14.25 17.8438 14.2604 17.4688 14.2812C17.1146 14.3021 16.8021 14.3333 16.5312 14.375C16.2812 14.4167 16.0729 14.4688 15.9062 14.5312C15.2604 14.7812 14.8125 15.2292 14.5625 15.875C14.5 16.0417 14.4479 16.2604 14.4062 16.5312C14.3646 16.7812 14.3333 17.0938 14.3125 17.4688C14.2917 17.8229 14.2812 18.1146 14.2812 18.3438C14.2812 18.5521 14.2812 18.875 14.2812 19.3125C14.2812 19.7292 14.2812 19.9583 14.2812 20C14.2812 20.0833 14.2812 20.2812 14.2812 20.5938C14.2812 20.8854 14.2812 21.1354 14.2812 21.3438C14.2812 21.5312 14.2812 21.7812 14.2812 22.0938C14.3021 22.4062 14.3229 22.6771 14.3438 22.9062C14.3646 23.1146 14.3958 23.3333 14.4375 23.5625C14.4792 23.7917 14.5208 23.9792 14.5625 24.125C14.8333 24.7708 15.2812 25.2188 15.9062 25.4688C16.0729 25.5312 16.2812 25.5833 16.5312 25.625C16.8021 25.6667 17.1146 25.6979 17.4688 25.7188C17.8438 25.7396 18.1354 25.75 18.3438 25.75C18.5729 25.75 18.8958 25.75 19.3125 25.75C19.75 25.75 19.9896 25.75 20.0312 25.75C20.0938 25.75 20.3229 25.75 20.7188 25.75C21.1354 25.75 21.4583 25.75 21.6875 25.75C21.9167 25.75 22.2083 25.7396 22.5625 25.7188C22.9375 25.6979 23.25 25.6667 23.5 25.625C23.7708 25.5833 23.9896 25.5312 24.1562 25.4688C24.8021 25.1979 25.25 24.75 25.5 24.125Z" fill="currentColor"></path>
  </symbol>

  <symbol version="1.1" xmlns="http://www.w3.org/2000/svg" xmlns:xlink="http://www.w3.org/1999/xlink" viewBox="0 0 512 512" id="location">
    <title>location-filled</title>
    <g id="Page-1" stroke="none" stroke-width="1" fill="none" fill-rule="evenodd">
      <g id="location-outline" fill="currentColor" transform="translate(106.666667, 42.666667)">
        <path d="M149.333333,7.10542736e-15 C231.807856,7.10542736e-15 298.666667,66.8588107 298.666667,149.333333 C298.666667,176.537017 291.413333,202.026667 278.683512,224.008666 C270.196964,238.663333 227.080238,313.32711 149.333333,448 C71.5864284,313.32711 28.4697022,238.663333 19.9831547,224.008666 C7.25333333,202.026667 2.84217094e-14,176.537017 2.84217094e-14,149.333333 C2.84217094e-14,66.8588107 66.8588107,7.10542736e-15 149.333333,7.10542736e-15 Z M149.333333,85.3333333 C113.987109,85.3333333 85.3333333,113.987109 85.3333333,149.333333 C85.3333333,184.679557 113.987109,213.333333 149.333333,213.333333 C184.679557,213.333333 213.333333,184.679557 213.333333,149.333333 C213.333333,113.987109 184.679557,85.3333333 149.333333,85.3333333 Z" id="Combined-Shape"></path>
      </g>
    </g>
  </symbol>

 <symbol fill="currentColor" version="1.1" xmlns="http://www.w3.org/2000/svg" viewBox="0 0 32 32" id="inbox">
    <title>inbox</title>
    <path d="M21.6 8h-11l-6.6 9v5c0 1.104 0.896 2 2 2h20c1.104 0 2-0.896 2-2v-5l-6.4-9zM22.465 17.023l-2.052 3.002-8.588-0.020-2.202-2.994-4.086-0.024 5.663-7.974h9.8l5.6 7.975-4.135 0.035z"></path>
  </symbol>
  <symbol fill="currentColor" xmlns="http://www.w3.org/2000/svg" viewBox="0 0 24 24" id="phone">
    <path d="M21.384,17.752a2.108,2.108,0,0,1-.522,3.359,7.543,7.543,0,0,1-5.476.642C10.5,20.523,3.477,13.5,2.247,8.614a7.543,7.543,0,0,1,.642-5.476,2.108,2.108,0,0,1,3.359-.522L8.333,4.7a2.094,2.094,0,0,1,.445,2.328A3.877,3.877,0,0,1,8,8.2c-2.384,2.384,5.417,10.185,7.8,7.8a3.877,3.877,0,0,1,1.173-.781,2.092,2.092,0,0,1,2.328.445Z"></path>
  </symbol>
  <symbol fill="none" xmlns="http://www.w3.org/2000/svg" viewBox="0 0 40 40" id="twitter">
    <path d="M23.7188 21H21.375V28H18.25V21H15.7188V18.0938H18.25V15.9062C18.25 15.0729 18.4062 14.3646 18.7188 13.7812C19.0312 13.1979 19.4688 12.7604 20.0312 12.4688C20.6146 12.1562 21.2812 12 22.0312 12C22.3646 12 22.7188 12.0208 23.0938 12.0625C23.4688 12.0833 23.7604 12.1146 23.9688 12.1562L24.2812 12.1875V14.6562H23.0312C22.4479 14.6562 22.0208 14.8125 21.75 15.125C21.5 15.4167 21.375 15.7812 21.375 16.2188V18.0938H24.1562L23.7188 21Z" fill="currentColor"></path>
  </symbol>
  <symbol fill="none" xmlns="http://www.w3.org/2000/svg" viewBox="0 0 70 70" id="zoom">
    <path fill-rule="evenodd" clip-rule="evenodd" d="M28.4375 52.5C31.5974 52.5 34.7264 51.8776 37.6458 50.6684C40.5652 49.4591 43.2178 47.6867 45.4523 45.4523C47.6867 43.2178 49.4591 40.5652 50.6684 37.6458C51.8776 34.7264 52.5 31.5974 52.5 28.4375C52.5 25.2776 51.8776 22.1486 50.6684 19.2292C49.4591 16.3098 47.6867 13.6572 45.4523 11.4227C43.2178 9.18833 40.5652 7.4159 37.6458 6.20665C34.7264 4.9974 31.5974 4.375 28.4375 4.375C22.0557 4.375 15.9353 6.91015 11.4227 11.4227C6.91015 15.9353 4.375 22.0557 4.375 28.4375C4.375 34.8193 6.91015 40.9397 11.4227 45.4523C15.9353 49.9649 22.0557 52.5 28.4375 52.5ZM56.875 28.4375C56.875 35.9796 53.8789 43.2128 48.5458 48.5458C43.2128 53.8789 35.9796 56.875 28.4375 56.875C20.8954 56.875 13.6622 53.8789 8.32915 48.5458C2.99609 43.2128 0 35.9796 0 28.4375C0 20.8954 2.99609 13.6622 8.32915 8.32915C13.6622 2.99609 20.8954 0 28.4375 0C35.9796 0 43.2128 2.99609 48.5458 8.32915C53.8789 13.6622 56.875 20.8954 56.875 28.4375Z" fill="currentColor"></path>
    <path d="M45.255 51.3714C45.3863 51.5464 45.5263 51.7126 45.6838 51.8745L62.5275 68.7182C63.3479 69.5392 64.4607 70.0006 65.6213 70.001C66.7818 70.0014 67.895 69.5408 68.7159 68.7204C69.5369 67.9001 69.9983 66.7872 69.9987 65.6267C69.9991 64.4661 69.5385 63.3529 68.7181 62.532L51.8744 45.6882C51.718 45.5299 51.5498 45.3836 51.3713 45.2507C49.655 47.5908 47.5927 49.6561 45.255 51.3757V51.3714Z" fill="currentColor"></path>
    <path fill-rule="evenodd" clip-rule="evenodd" d="M28.4375 13.125C29.0177 13.125 29.5741 13.3555 29.9843 13.7657C30.3945 14.1759 30.625 14.7323 30.625 15.3125V26.25H41.5625C42.1427 26.25 42.6991 26.4805 43.1093 26.8907C43.5195 27.3009 43.75 27.8573 43.75 28.4375C43.75 29.0177 43.5195 29.5741 43.1093 29.9843C42.6991 30.3945 42.1427 30.625 41.5625 30.625H30.625V41.5625C30.625 42.1427 30.3945 42.6991 29.9843 43.1093C29.5741 43.5195 29.0177 43.75 28.4375 43.75C27.8573 43.75 27.3009 43.5195 26.8907 43.1093C26.4805 42.6991 26.25 42.1427 26.25 41.5625V30.625H15.3125C14.7323 30.625 14.1759 30.3945 13.7657 29.9843C13.3555 29.5741 13.125 29.0177 13.125 28.4375C13.125 27.8573 13.3555 27.3009 13.7657 26.8907C14.1759 26.4805 14.7323 26.25 15.3125 26.25H26.25V15.3125C26.25 14.7323 26.4805 14.1759 26.8907 13.7657C27.3009 13.3555 27.8573 13.125 28.4375 13.125Z" fill="currentColor"></path>
  </symbol>
  <symbol fill="currentColor" xmlns="http://www.w3.org/2000/svg" viewBox="0 0 1024 1024" id="cross">
    <path d="M512.481 421.906L850.682 84.621c25.023-24.964 65.545-24.917 90.51.105s24.917 65.545-.105 90.51L603.03 512.377 940.94 850c25.003 24.984 25.017 65.507.033 90.51s-65.507 25.017-90.51.033L512.397 602.764 174.215 940.03c-25.023 24.964-65.545 24.917-90.51-.105s-24.917-65.545.105-90.51l338.038-337.122L84.14 174.872c-25.003-24.984-25.017-65.507-.033-90.51s65.507-25.017 90.51-.033L512.48 421.906z"></path>
  </symbol>
  <symbol fill="none" xmlns="http://www.w3.org/2000/svg" viewBox="0 0 106 106" id="marker">
    <circle opacity="0.3" cx="53" cy="53" r="53" fill="white"></circle>
    <g opacity="0.8" filter="url(#filter0_d_9_39)">
      <circle cx="53" cy="53" r="35" fill="white"></circle>
    </g>
    <circle cx="53" cy="53" r="8" fill="#7E5AFF"></circle>
    <defs>
      <filter id="filter0_d_9_39" x="3" y="3" width="100" height="100" filterUnits="userSpaceOnUse" color-interpolation-filters="sRGB">
        <feFlood flood-opacity="0" result="BackgroundImageFix"></feFlood>
        <feColorMatrix in="SourceAlpha" type="matrix" values="0 0 0 0 0 0 0 0 0 0 0 0 0 0 0 0 0 0 127 0" result="hardAlpha"></feColorMatrix>
        <feOffset></feOffset>
        <feGaussianBlur stdDeviation="7.5"></feGaussianBlur>
        <feColorMatrix type="matrix" values="0 0 0 0 0.690196 0 0 0 0 0.690196 0 0 0 0 0.690196 0 0 0 0.25 0"></feColorMatrix>
        <feBlend mode="multiply" in2="BackgroundImageFix" result="effect1_dropShadow_9_39"></feBlend>
        <feBlend mode="normal" in="SourceGraphic" in2="effect1_dropShadow_9_39" result="shape"></feBlend>
      </filter>
    </defs>
  </symbol>
</svg>